<?xml version="1.0" encoding="UTF-8" standalone="no"?>
<!DOCTYPE svg PUBLIC "-//W3C//DTD SVG 1.1//EN"
 "http://www.w3.org/Graphics/SVG/1.1/DTD/svg11.dtd">
<!-- Generated by graphviz version 2.26.3 (20100126.1600)
 -->
<!-- Title: debug Pages: 1 -->
<svg width="553pt" height="185pt"
 viewBox="0.00 0.00 553.00 185.00" xmlns="http://www.w3.org/2000/svg" xmlns:xlink="http://www.w3.org/1999/xlink">
<g id="graph1" class="graph" transform="scale(1 1) rotate(0) translate(4 181)">
<title>debug</title>
<polygon fill="white" stroke="white" points="-4,5 -4,-181 550,-181 550,5 -4,5"/>
<g id="graph2" class="cluster"><title>cluster_1</title>
<polygon fill="lightgrey" stroke="lightgrey" points="8,-8 8,-169 537,-169 537,-8 8,-8"/>
<text text-anchor="middle" x="272.5" y="-152.4" font-family="Times Roman,serif" font-size="14.00">file:///home/munter/assetgraph/core/testdata/transforms/importCdnAssets/</text>
</g>
<!-- 1 -->
<g id="node1" class="node"><title>1</title>
<ellipse fill="none" stroke="black" cx="250" cy="-118" rx="62.0391" ry="18"/>
<text text-anchor="middle" x="250" y="-113.9" font-family="Times Roman,serif" font-size="14.00">index.html</text>
</g>
<!-- 5 -->
<g id="node2" class="node"><title>5</title>
<ellipse fill="none" stroke="black" cx="105" cy="-34" rx="59.9551" ry="18"/>
<text text-anchor="middle" x="105" y="-29.9" font-family="Times Roman,serif" font-size="14.00">5&#45;jquery.js</text>
</g>
<!-- 1&#45;&gt;5 -->
<g id="edge3" class="edge"><title>1&#45;&gt;5</title>
<path fill="none" stroke="black" d="M222.043,-101.804C199.175,-88.5564 166.654,-69.7167 141.694,-55.257"/>
<polygon fill="none" stroke="black" points="143.279,-52.1306 132.872,-50.1463 139.77,-58.1876 143.279,-52.1306"/>
<text text-anchor="middle" x="207" y="-73.4" font-family="Times Roman,serif" font-size="9.00">&lt;script&gt;</text>
</g>
<!-- 6 -->
<g id="node3" class="node"><title>6</title>
<ellipse fill="none" stroke="black" cx="250" cy="-34" rx="66.9043" ry="18"/>
<text text-anchor="middle" x="250" y="-29.9" font-family="Times Roman,serif" font-size="14.00">6&#45;angular.js</text>
</g>
<!-- 1&#45;&gt;6 -->
<g id="edge5" class="edge"><title>1&#45;&gt;6</title>
<path fill="none" stroke="black" d="M250,-99.7733C250,-88.8758 250,-74.7946 250,-62.4587"/>
<polygon fill="none" stroke="black" points="253.5,-62.1911 250,-52.1912 246.5,-62.1912 253.5,-62.1911"/>
<text text-anchor="middle" x="271" y="-73.4" font-family="Times Roman,serif" font-size="9.00">&lt;script&gt;</text>
</g>
<!-- 7 -->
<g id="node4" class="node"><title>7</title>
<ellipse fill="none" stroke="black" cx="417" cy="-34" rx="81.9961" ry="18"/>
<text text-anchor="middle" x="417" y="-29.9" font-family="Times Roman,serif" font-size="14.00">7&#45;base&#45;min.css</text>
</g>
<!-- 1&#45;&gt;7 -->
<g id="edge7" class="edge"><title>1&#45;&gt;7</title>
<path fill="none" stroke="black" d="M281.02,-102.397C307.491,-89.0825 345.795,-69.8158 375.008,-55.1216"/>
<polygon fill="none" stroke="black" points="376.786,-58.1451 384.147,-50.5248 373.641,-51.8916 376.786,-58.1451"/>
<text text-anchor="middle" x="361.5" y="-73.4" font-family="Times Roman,serif" font-size="9.00">&lt;style&gt;</text>
</g>
</g>
</svg>
